<?xml version="1.0" encoding="utf-8"?>
<svg viewBox="0 0 320 512" xmlns="http://www.w3.org/2000/svg">
  <defs>
    <radialGradient gradientUnits="userSpaceOnUse" cx="160" cy="256" r="160.075" id="gradient-0">
      <stop offset="0" style="stop-color: #bada55"/>
      <stop offset="1" style="stop-color: #758d29"/>
    </radialGradient>
  </defs>
  <path d="M310.6 150.6c12.5-12.5 12.5-32.8 0-45.3s-32.8-12.5-45.3 0L160 210.7 54.6 105.4c-12.5-12.5-32.8-12.5-45.3 0s-12.5 32.8 0 45.3L114.7 256 9.4 361.4c-12.5 12.5-12.5 32.8 0 45.3s32.8 12.5 45.3 0L160 301.3 265.4 406.6c12.5 12.5 32.8 12.5 45.3 0s12.5-32.8 0-45.3L205.3 256 310.6 150.6z" style="stroke-linecap: round; stroke: url(#gradient-0); paint-order: fill markers; stroke-width: 19px; stroke-opacity: 0.51; fill: rgb(255, 0, 0);"/>
</svg>